<svg width="28" height="28" viewBox="0 0 28 28" fill="none" xmlns="http://www.w3.org/2000/svg">
<path d="M14.0001 0C6.26807 0 7.62939e-05 6.26796 7.62939e-05 14C7.62939e-05 21.732 6.26812 28 14.0001 28C21.732 28 28.0001 21.732 28.0001 14C28.0001 6.26796 21.732 0 14.0001 0Z" fill="url(#paint0_linear_6318_106205)"/>
<g clip-path="url(#clip0_6318_106205)">
<path d="M18.3751 14.875C16.5715 14.875 15.7501 15.5554 15.7501 16.1875V19.6875C15.7501 20.3197 16.5715 21 18.3751 21C20.1787 21 21.0001 20.3197 21.0001 19.6875V16.1875C21.0001 15.5554 20.1787 14.875 18.3751 14.875ZM20.1251 17.9215C20.0476 18.0572 19.4422 18.375 18.3751 18.375C17.308 18.375 16.7026 18.0572 16.6251 17.9215V17.1999C17.0469 17.3824 17.626 17.5 18.3751 17.5C19.1242 17.5 19.7033 17.3824 20.1251 17.1999V17.9215ZM18.3751 15.75C19.402 15.75 20.0015 16.0443 20.1142 16.1875C20.0015 16.3307 19.402 16.625 18.3751 16.625C17.3482 16.625 16.7487 16.3307 16.636 16.1875C16.7487 16.0443 17.3482 15.75 18.3751 15.75ZM14.875 16.1874C14.875 14.879 16.2816 13.9999 18.3751 13.9999C18.6377 13.9999 18.8895 14.0138 19.1291 14.0406C18.8574 13.3141 18.1572 12.7969 17.336 12.7969C17.336 11.7397 16.479 10.8828 15.4219 10.8828C15.2186 10.8828 15.0265 10.9228 14.8427 10.9817C14.4129 9.80952 13.2976 8.96875 11.9766 8.96875C10.2852 8.96875 8.91412 10.3398 8.91412 12.0312C8.91412 12.0443 8.91766 12.0563 8.91785 12.0694C7.83073 12.2509 7.00005 13.1894 7.00005 14.3281C7.00005 15.5966 8.02829 16.625 9.29693 16.625H14.875V16.1874ZM18.3751 20.125C17.3083 20.125 16.7029 19.8074 16.6251 19.6715V18.9499C17.0469 19.1324 17.626 19.25 18.3751 19.25C19.1242 19.25 19.7033 19.1324 20.1251 18.9499V19.6715C20.0473 19.8074 19.4418 20.125 18.3751 20.125Z" fill="#0D213F"/>
</g>
<defs>
<linearGradient id="paint0_linear_6318_106205" x1="14.0001" y1="28.0001" x2="14.0001" y2="0" gradientUnits="userSpaceOnUse">
<stop stop-color="#93BAF5"/>
<stop offset="1" stop-color="#D7E6FC"/>
</linearGradient>
<clipPath id="clip0_6318_106205">
<rect width="15.75" height="15.75" fill="white" transform="translate(6.12508 6.125)"/>
</clipPath>
</defs>
</svg>
