<svg width="44" height="44" fill="none" xmlns="http://www.w3.org/2000/svg"><path d="M22 0C9.85 0 0 9.85 0 22s9.85 22 22 22 22-9.85 22-22S34.15 0 22 0z" fill="url(#prefix__paint0_linear_459_171899)"/><g clip-path="url(#prefix__clip0_459_171899)"><path d="M22 23.375a2.405 2.405 0 110 4.81 2.405 2.405 0 010-4.81zm3.005-2.75h.014a1.806 1.806 0 001.793-1.805v-.902c0-.665-.54-1.203-1.205-1.203h-.706c-.32 0-.626.127-.852.352l-.628.627a.451.451 0 01-.488.104 5.427 5.427 0 01-2.92-2.922.45.45 0 01.104-.486l.633-.631c.225-.226.352-.532.352-.851v-.705c0-.664-.539-1.203-1.204-1.203h-.904c-1 0-1.809.818-1.807 1.818.007 4.308 3.503 7.8 7.817 7.807zm-9.192 5.844a1.89 1.89 0 100-3.78 1.89 1.89 0 000 3.78zm0 .945c-1.965 0-3.438.847-3.438 1.89 0 .523.508.946.982.946h3.59c.428-.694 1.144-1.268 2.057-1.66-.497-.69-1.703-1.176-3.191-1.176zm12.374 0c-1.488 0-2.694.486-3.191 1.176.913.392 1.629.966 2.057 1.66h3.59c.475 0 .982-.423.982-.945 0-1.044-1.473-1.89-3.438-1.89zm0-.945a1.89 1.89 0 100-3.78 1.89 1.89 0 000 3.78zM22 29.39c2.358 0 4.125 1.077 4.125 2.406 0 .664-.609 1.203-1.178 1.203h-5.894c-.569 0-1.178-.539-1.178-1.203 0-1.329 1.767-2.406 4.125-2.406z" fill="#0D213F"/></g><defs><linearGradient id="prefix__paint0_linear_459_171899" x1="22" y1="44" x2="22" y2="0" gradientUnits="userSpaceOnUse"><stop stop-color="#93BAF5"/><stop offset="1" stop-color="#D7E6FC"/></linearGradient><clipPath id="prefix__clip0_459_171899"><path fill="#fff" transform="translate(9.625 9.625)" d="M0 0h24.75v24.75H0z"/></clipPath></defs></svg>