<!-- As a reusable component -->
<svg viewBox="0 0 16 16" fill="currentColor" aria-label="Copy" role="img" xmlns="http://www.w3.org/2000/svg">
  <path d="M8 1H4C3.28343 1 2.80615 1.00078 2.43944 1.03074C2.0844 1.05975 1.92194 1.11105 1.81901 1.16349C1.53677 1.3073 1.3073 1.53677 1.16349 1.81901C1.11105 1.92194 1.05975 2.0844 1.03074 2.43944C1.00078 2.80615 1 3.28343 1 4V8C1 8.71657 1.00078 9.19385 1.03074 9.56056C1.05975 9.9156 1.11105 10.0781 1.16349 10.181C1.3073 10.4632 1.53677 10.6927 1.81901 10.8365C1.92194 10.889 2.0844 10.9403 2.43944 10.9693C2.60112 10.9825 2.7843 10.99 3 10.9943V11.9945C2.23039 11.9797 1.75399 11.9257 1.36502 11.7275C0.894619 11.4878 0.512167 11.1054 0.272484 10.635C0 10.1002 0 9.40013 0 8V4C0 2.59987 0 1.8998 0.272484 1.36502C0.512167 0.894619 0.894619 0.512167 1.36502 0.272484C1.8998 0 2.59987 0 4 0H8C9.40013 0 10.1002 0 10.635 0.272484C11.1054 0.512167 11.4878 0.894619 11.7275 1.36502C11.9257 1.75399 11.9797 2.23039 11.9945 3H10.9943C10.99 2.7843 10.9825 2.60112 10.9693 2.43944C10.9403 2.0844 10.889 1.92194 10.8365 1.81901C10.6927 1.53677 10.4632 1.3073 10.181 1.16349C10.0781 1.11105 9.9156 1.05975 9.56056 1.03074C9.19385 1.00078 8.71657 1 8 1Z"></path>
  <path fill-rule="evenodd" clip-rule="evenodd" d="M4 8C4 6.59987 4 5.8998 4.27248 5.36502C4.51217 4.89462 4.89462 4.51217 5.36502 4.27248C5.8998 4 6.59987 4 8 4H12C13.4001 4 14.1002 4 14.635 4.27248C15.1054 4.51217 15.4878 4.89462 15.7275 5.36502C16 5.8998 16 6.59987 16 8V12C16 13.4001 16 14.1002 15.7275 14.635C15.4878 15.1054 15.1054 15.4878 14.635 15.7275C14.1002 16 13.4001 16 12 16H8C6.59987 16 5.8998 16 5.36502 15.7275C4.89462 15.4878 4.51217 15.1054 4.27248 14.635C4 14.1002 4 13.4001 4 12V8ZM8 5H12C12.7166 5 13.1938 5.00078 13.5606 5.03074C13.9156 5.05975 14.0781 5.11105 14.181 5.16349C14.4632 5.3073 14.6927 5.53677 14.8365 5.81901C14.889 5.92194 14.9403 6.0844 14.9693 6.43944C14.9992 6.80615 15 7.28343 15 8V12C15 12.7166 14.9992 13.1938 14.9693 13.5606C14.9403 13.9156 14.889 14.0781 14.8365 14.181C14.6927 14.4632 14.4632 14.6927 14.181 14.8365C14.0781 14.889 13.9156 14.9403 13.5606 14.9693C13.1938 14.9992 12.7166 15 12 15H8C7.28343 15 6.80615 14.9992 6.43944 14.9693C6.0844 14.9403 5.92194 14.889 5.81901 14.8365C5.53677 14.6927 5.3073 14.4632 5.16349 14.181C5.11105 14.0781 5.05975 13.9156 5.03074 13.5606C5.00078 13.1938 5 12.7166 5 12V8C5 7.28343 5.00078 6.80615 5.03074 6.43944C5.05975 6.0844 5.11105 5.92194 5.16349 5.81901C5.3073 5.53677 5.53677 5.3073 5.81901 5.16349C5.92194 5.11105 6.0844 5.05975 6.43944 5.03074C6.80615 5.00078 7.28343 5 8 5Z"></path>
</svg>