<svg width="28" height="28" viewBox="0 0 28 28" fill="none" xmlns="http://www.w3.org/2000/svg">
<path d="M14.0001 0C6.26806 0 6.10352e-05 6.26796 6.10352e-05 14C6.10352e-05 21.732 6.26811 28 14.0001 28C21.732 28 28 21.732 28 14C28 6.26796 21.732 0 14.0001 0Z" fill="url(#paint0_linear_6318_106221)"/>
<g clip-path="url(#clip0_6318_106221)">
<path d="M9.18756 10.5H7.65631C7.29388 10.5 7.00006 10.2062 7.00006 9.84375V8.96875C7.00006 8.60632 7.29388 8.3125 7.65631 8.3125H9.18756C9.54999 8.3125 9.84381 8.60632 9.84381 8.96875V9.84375C9.84381 10.2062 9.54999 10.5 9.18756 10.5ZM13.5626 9.84375V8.96875C13.5626 8.60632 13.2687 8.3125 12.9063 8.3125H11.3751C11.0126 8.3125 10.7188 8.60632 10.7188 8.96875V9.84375C10.7188 10.2062 11.0126 10.5 11.3751 10.5H12.9063C13.2687 10.5 13.5626 10.2062 13.5626 9.84375ZM17.2813 9.84375V8.96875C17.2813 8.60632 16.9875 8.3125 16.6251 8.3125H15.0938C14.7314 8.3125 14.4376 8.60632 14.4376 8.96875V9.84375C14.4376 10.2062 14.7314 10.5 15.0938 10.5H16.6251C16.9875 10.5 17.2813 10.2062 17.2813 9.84375ZM21.0001 9.84375V8.96875C21.0001 8.60632 20.7062 8.3125 20.3438 8.3125H18.8126C18.4501 8.3125 18.1563 8.60632 18.1563 8.96875V9.84375C18.1563 10.2062 18.4501 10.5 18.8126 10.5H20.3438C20.7062 10.5 21.0001 10.2062 21.0001 9.84375ZM9.84381 12.9062V12.0312C9.84381 11.6688 9.54999 11.375 9.18756 11.375H7.65631C7.29388 11.375 7.00006 11.6688 7.00006 12.0312V12.9062C7.00006 13.2687 7.29388 13.5625 7.65631 13.5625H9.18756C9.54999 13.5625 9.84381 13.2687 9.84381 12.9062ZM13.5626 12.9062V12.0312C13.5626 11.6688 13.2687 11.375 12.9063 11.375H11.3751C11.0126 11.375 10.7188 11.6688 10.7188 12.0312V12.9062C10.7188 13.2687 11.0126 13.5625 11.3751 13.5625H12.9063C13.2687 13.5625 13.5626 13.2687 13.5626 12.9062ZM17.2813 12.9062V12.0312C17.2813 11.6688 16.9875 11.375 16.6251 11.375H15.0938C14.7314 11.375 14.4376 11.6688 14.4376 12.0312V12.9062C14.4376 13.2687 14.7314 13.5625 15.0938 13.5625H16.6251C16.9875 13.5625 17.2813 13.2687 17.2813 12.9062ZM21.0001 12.9062V12.0312C21.0001 11.6688 20.7062 11.375 20.3438 11.375H18.8126C18.4501 11.375 18.1563 11.6688 18.1563 12.0312V12.9062C18.1563 13.2687 18.4501 13.5625 18.8126 13.5625H20.3438C20.7062 13.5625 21.0001 13.2687 21.0001 12.9062ZM9.84381 15.9688V15.0938C9.84381 14.7313 9.54999 14.4375 9.18756 14.4375H7.65631C7.29388 14.4375 7.00006 14.7313 7.00006 15.0938V15.9688C7.00006 16.3312 7.29388 16.625 7.65631 16.625H9.18756C9.54999 16.625 9.84381 16.3312 9.84381 15.9688ZM13.5626 15.9688V15.0938C13.5626 14.7313 13.2687 14.4375 12.9063 14.4375H11.3751C11.0126 14.4375 10.7188 14.7313 10.7188 15.0938V15.9688C10.7188 16.3312 11.0126 16.625 11.3751 16.625H12.9063C13.2687 16.625 13.5626 16.3312 13.5626 15.9688ZM17.2813 15.9688V15.0938C17.2813 14.7313 16.9875 14.4375 16.6251 14.4375H15.0938C14.7314 14.4375 14.4376 14.7313 14.4376 15.0938V15.9688C14.4376 16.3312 14.7314 16.625 15.0938 16.625H16.6251C16.9875 16.625 17.2813 16.3312 17.2813 15.9688ZM21.0001 15.9688V15.0938C21.0001 14.7313 20.7062 14.4375 20.3438 14.4375H18.8126C18.4501 14.4375 18.1563 14.7313 18.1563 15.0938V15.9688C18.1563 16.3312 18.4501 16.625 18.8126 16.625H20.3438C20.7062 16.625 21.0001 16.3312 21.0001 15.9688ZM9.84381 19.0312V18.1562C9.84381 17.7938 9.54999 17.5 9.18756 17.5H7.65631C7.29388 17.5 7.00006 17.7938 7.00006 18.1562V19.0312C7.00006 19.3937 7.29388 19.6875 7.65631 19.6875H9.18756C9.54999 19.6875 9.84381 19.3937 9.84381 19.0312ZM13.5626 19.0312V18.1562C13.5626 17.7938 13.2687 17.5 12.9063 17.5H11.3751C11.0126 17.5 10.7188 17.7938 10.7188 18.1562V19.0312C10.7188 19.3937 11.0126 19.6875 11.3751 19.6875H12.9063C13.2687 19.6875 13.5626 19.3937 13.5626 19.0312ZM17.2813 19.0312V18.1562C17.2813 17.7938 16.9875 17.5 16.6251 17.5H15.0938C14.7314 17.5 14.4376 17.7938 14.4376 18.1562V19.0312C14.4376 19.3937 14.7314 19.6875 15.0938 19.6875H16.6251C16.9875 19.6875 17.2813 19.3937 17.2813 19.0312ZM21.0001 19.0312V18.1562C21.0001 17.7938 20.7062 17.5 20.3438 17.5H18.8126C18.4501 17.5 18.1563 17.7938 18.1563 18.1562V19.0312C18.1563 19.3937 18.4501 19.6875 18.8126 19.6875H20.3438C20.7062 19.6875 21.0001 19.3937 21.0001 19.0312Z" fill="#0D213F"/>
</g>
<defs>
<linearGradient id="paint0_linear_6318_106221" x1="14.0001" y1="28.0001" x2="14.0001" y2="0" gradientUnits="userSpaceOnUse">
<stop stop-color="#93BAF5"/>
<stop offset="1" stop-color="#D7E6FC"/>
</linearGradient>
<clipPath id="clip0_6318_106221">
<rect width="15.75" height="15.75" fill="white" transform="translate(6.12506 6.125)"/>
</clipPath>
</defs>
</svg>
