<svg width="60" height="60" viewBox="0 0 60 60" fill="none" xmlns="http://www.w3.org/2000/svg">
<path d="M60 30C60 33.2081 59.7421 36.3538 59.2494 39.4211C57.6185 49.5752 49.5751 57.6185 39.421 59.2494C36.3537 59.7421 33.2079 60 30 60C26.7921 60 23.6463 59.7421 20.579 59.2494C10.4249 57.6185 2.38147 49.5752 0.750585 39.4211C0.257926 36.3539 0 33.2081 0 30C0 26.7919 0.257926 23.6462 0.750585 20.5789C2.38147 10.4248 10.4249 2.38147 20.579 0.75058C23.6463 0.257922 26.7921 0 30 0C33.2079 0 36.3537 0.257922 39.421 0.75058C49.5751 2.38147 57.6185 10.4248 59.2494 20.5789C59.7421 23.6461 60 26.7919 60 30Z" fill="#0B5CFF"/>
<path d="M60 30C60 33.2081 59.7421 36.3538 59.2494 39.4211C57.6185 49.5752 49.5751 57.6185 39.421 59.2494C36.3537 59.7421 33.2079 60 30 60C26.7921 60 23.6463 59.7421 20.579 59.2494C10.4249 57.6185 2.38147 49.5752 0.750585 39.4211C0.257926 36.3539 0 33.2081 0 30C0 26.7919 0.257926 23.6462 0.750585 20.5789C2.38147 10.4248 10.4249 2.38147 20.579 0.75058C23.6463 0.257922 26.7921 0 30 0C33.2079 0 36.3537 0.257922 39.421 0.75058C49.5751 2.38147 57.6185 10.4248 59.2494 20.5789C59.7421 23.6461 60 26.7919 60 30Z" fill="url(#paint0_radial_1038_6080)"/>
<path d="M59.9998 30C59.9998 33.208 59.7419 36.3538 59.2492 39.421C57.6182 49.5752 49.5749 57.6185 39.4208 59.2493C36.3535 59.742 33.2078 59.9999 29.9999 59.9999C26.792 59.9999 23.6462 59.742 20.5789 59.2493C10.4247 57.6185 2.38136 49.5752 0.750478 39.421C0.257819 36.3537 0 33.208 0 30C0 26.792 0.257819 23.6461 0.750478 20.5788C2.38147 10.4248 10.4248 2.38126 20.5789 0.750478C23.6463 0.257819 26.7919 0 29.9999 0C33.2079 0 36.3536 0.257819 39.4208 0.750478C49.575 2.38126 57.6183 10.4248 59.2492 20.5788C59.7419 23.6461 59.9998 26.7918 59.9998 30Z" fill="url(#paint1_radial_1038_6080)"/>
<g clip-path="url(#clip0_1038_6080)">
<path d="M36.4287 27.3219C31.103 27.3219 26.7859 31.6391 26.7859 36.9645C26.7859 42.2899 31.103 46.6071 36.4287 46.6071C41.7545 46.6071 46.0716 42.2899 46.0716 36.9645C46.0716 31.6391 41.7545 27.3219 36.4287 27.3219ZM40.2161 40.7534C40.0069 40.9626 39.7327 41.0673 39.4586 41.0673C39.1845 41.0673 38.9103 40.9626 38.701 40.7534L35.6709 37.7212C35.47 37.5203 35.357 37.2483 35.357 36.9637V31.6067C35.357 31.0145 35.8362 30.5353 36.4285 30.5353C37.0207 30.5353 37.4999 31.0145 37.4999 31.6067V36.5201L40.2161 39.2384C40.6347 39.6569 40.6347 40.3349 40.2161 40.7534ZM35.8927 20.8927C35.3005 20.8927 34.8213 20.4135 34.8213 19.8213V13.3928C34.8213 12.8006 35.3005 12.3214 35.8927 12.3214C36.485 12.3214 36.9642 12.8006 36.9642 13.3928V19.8212C36.9642 20.4134 36.485 20.8927 35.8927 20.8927ZM24.107 20.8927C23.5148 20.8927 23.0356 20.4135 23.0356 19.8213V13.3928C23.0356 12.8006 23.5148 12.3214 24.107 12.3214C24.6992 12.3214 25.1785 12.8006 25.1785 13.3928V19.8212C25.1785 20.4134 24.6992 20.8927 24.107 20.8927ZM39.643 15.5364H39.107V19.8213C39.107 21.5958 37.6673 23.0355 35.8927 23.0355C34.1182 23.0355 32.6785 21.5958 32.6785 19.8213V15.5364H27.3213V19.8213C27.3213 21.5958 25.8816 23.0355 24.107 23.0355C22.3325 23.0355 20.8927 21.5958 20.8927 19.8213V15.5364H20.3573C16.8069 15.5364 13.9287 18.4145 13.9287 21.9648V39.1073C13.9287 42.6576 16.8069 45.5357 20.3573 45.5357H26.3927C26.9844 45.5357 27.4641 45.056 27.4641 44.4643C27.4641 43.8724 26.9844 43.3929 26.3927 43.3929L20.3573 43.3927C17.9905 43.3927 16.0716 41.4738 16.0716 39.1071V29.4644C16.0716 27.0977 17.9905 25.1788 20.3573 25.1788H39.643C41.2263 25.1788 42.5949 26.0465 43.3352 27.3242C43.4236 27.477 43.5481 27.6047 43.6867 27.7135C43.6967 27.7213 43.7066 27.7289 43.7166 27.7367C44.6698 28.4893 46.0716 27.7956 46.0716 26.5814V21.9649C46.0716 18.4145 43.1934 15.5364 39.643 15.5364Z" fill="white"/>
</g>
<defs>
<radialGradient id="paint0_radial_1038_6080" cx="0" cy="0" r="1" gradientUnits="userSpaceOnUse" gradientTransform="translate(30 26.5137) scale(40.4478 33.8055)">
<stop offset="0.82" stop-color="#0B5CFF" stop-opacity="0"/>
<stop offset="0.98" stop-color="#003CB3"/>
</radialGradient>
<radialGradient id="paint1_radial_1038_6080" cx="0" cy="0" r="1" gradientUnits="userSpaceOnUse" gradientTransform="translate(29.9999 33.4737) scale(40.4334 33.7934)">
<stop offset="0.8" stop-color="#0B5CFF" stop-opacity="0"/>
<stop offset="1" stop-color="#71A5F1"/>
</radialGradient>
<clipPath id="clip0_1038_6080">
<rect width="38.5714" height="38.5714" fill="white" transform="translate(10.7144 10.7142)"/>
</clipPath>
</defs>
</svg>
