<svg xmlns="http://www.w3.org/2000/svg" width="28" height="28" viewBox="0 0 30 32" fill="none" role="img" aria-label="Smile icon" style="color: rgb(255, 255, 255); background-color: rgb(68, 136, 255); width: 28px; height: 28px;"><defs><mask id=":r14:" x="0" y="0" width="22" height="22"><path d="M15.0989 0.878906C19.048 0.878906 22.8354 2.44767 25.6278 5.24013C28.4203 8.03258 29.9891 11.82 29.9891 15.7691V29.6474C29.987 29.9938 29.8828 30.3319 29.6895 30.6193C29.4962 30.9067 29.2224 31.1307 28.9023 31.2632C28.5823 31.3956 28.2303 31.4307 27.8904 31.364C27.5505 31.2973 27.2379 31.1317 26.9917 30.888L23.8975 27.788C21.9995 29.1761 19.7997 30.095 17.4783 30.4694C15.1568 30.8438 12.7797 30.663 10.5415 29.9419C8.30339 29.2209 6.26782 27.98 4.60149 26.321C2.93515 24.6619 1.68543 22.6317 0.954638 20.3967C0.223849 18.1617 0.0327727 15.7855 0.397044 13.4624C0.761315 11.1394 1.67058 8.93561 3.0504 7.03157C4.43022 5.12753 6.24137 3.5773 8.33555 2.50788C10.4297 1.43847 12.7474 0.880272 15.0989 0.878906Z" fill="white"></path><path d="M21.3371 18.9715C21.5695 18.9378 21.8056 18.9378 22.038 18.9715C24.1262 19.341 23.4077 22.3326 21.8797 23.9368C20.2549 25.6379 18.4453 26.7201 15.093 26.7201C11.7407 26.7201 9.93115 25.6379 8.30633 23.9368C6.74311 22.2974 6.02749 19.2032 8.30633 18.9509C8.48171 18.9304 8.65887 18.9304 8.83425 18.9509L9.79329 19.0595C13.407 19.4726 17.0565 19.4647 20.6684 19.036L21.3371 18.9715Z" fill="black"></path></mask></defs><path d="M15.0989 0.878906C19.048 0.878906 22.8354 2.44767 25.6278 5.24013C28.4203 8.03258 29.9891 11.82 29.9891 15.7691V29.6474C29.987 29.9938 29.8828 30.3319 29.6895 30.6193C29.4962 30.9067 29.2224 31.1307 28.9023 31.2632C28.5823 31.3956 28.2303 31.4307 27.8904 31.364C27.5505 31.2973 27.2379 31.1317 26.9917 30.888L23.8975 27.788C21.9995 29.1761 19.7997 30.095 17.4783 30.4694C15.1568 30.8438 12.7797 30.663 10.5415 29.9419C8.30339 29.2209 6.26782 27.98 4.60149 26.321C2.93515 24.6619 1.68543 22.6317 0.954638 20.3967C0.223849 18.1617 0.0327727 15.7855 0.397044 13.4624C0.761315 11.1394 1.67058 8.93561 3.0504 7.03157C4.43022 5.12753 6.24137 3.5773 8.33555 2.50788C10.4297 1.43847 12.7474 0.880272 15.0989 0.878906Z" fill="currentColor" mask="url(#:r14:)"></path></svg>