<svg width="12" height="13" viewBox="0 0 12 13" fill="none" xmlns="http://www.w3.org/2000/svg">
<mask id="mask0_761_27459" style="mask-type:alpha" maskUnits="userSpaceOnUse" x="0" y="0" width="12" height="13">
<path fill-rule="evenodd" clip-rule="evenodd" d="M6 11.1458L3.8957 12.3194C2.86662 12.8933 1.63471 12.0176 1.82401 10.8468L2.24375 8.25072L0.401888 6.34616C-0.398773 5.51824 0.0640012 4.12359 1.19735 3.94888L3.67851 3.56642L4.72488 1.31729C5.23186 0.227568 6.76814 0.227568 7.27512 1.31729L8.32149 3.56642L10.8026 3.94888C11.936 4.12359 12.3988 5.51824 11.5981 6.34616L9.75625 8.25072L10.176 10.8468C10.3653 12.0176 9.13338 12.8933 8.10431 12.3194L6 11.1458Z" fill="#000001"/>
</mask>
<g mask="url(#mask0_761_27459)">
<rect width="12" height="12" transform="translate(0 0.5)" fill="#0E72ED"/>
</g>
</svg>
