<svg width="44" height="45" viewBox="0 0 44 45" fill="none" xmlns="http://www.w3.org/2000/svg">
<path d="M43.4496 15.5912C42.2536 8.14479 36.3551 2.24639 28.9087 1.0504C26.6593 0.689157 24.3524 0.5 22 0.5C19.6476 0.5 17.3407 0.689097 15.0913 1.0504C7.64485 2.24639 1.74638 8.14479 0.550395 15.5912C0.189147 17.8406 0 20.1474 0 22.5C0 24.8526 0.189087 27.1594 0.550395 29.4088C1.74638 36.8552 7.64491 42.7536 15.0913 43.9496C17.3407 44.3108 19.6476 44.5 22 44.5C24.3524 44.5 26.6593 44.3109 28.9087 43.9496C36.3552 42.7536 42.2536 36.8552 43.4496 29.4088C43.8109 27.1594 44 24.8526 44 22.5C44 20.1474 43.8109 17.8406 43.4496 15.5912Z" fill="url(#paint0_linear_850_188856)"/>
<path d="M13.1378 25.8736H7.68101C7.29815 25.8736 6.95608 25.645 6.80957 25.2913C6.66306 24.9376 6.74333 24.5341 7.01406 24.2634L10.7938 20.4837H8.08479C7.3406 20.4837 6.73731 19.8804 6.73731 19.1362H11.7697C12.1525 19.1362 12.4946 19.3647 12.6411 19.7184C12.7876 20.0721 12.7074 20.4756 12.4367 20.7464L8.65698 24.5261H11.7904C12.5346 24.5261 13.1378 25.1294 13.1378 25.8736ZM37.2577 21.6627C37.2577 20.2139 36.079 19.0352 34.6301 19.0352C33.8551 19.0352 33.1576 19.3726 32.6763 19.9081C32.1949 19.3726 31.4974 19.0352 30.7224 19.0352C29.2736 19.0352 28.0949 20.2139 28.0949 21.6627V25.8736C28.8391 25.8736 29.4423 25.2703 29.4423 24.5261V21.6627C29.4423 20.9569 30.0166 20.3826 30.7224 20.3826C31.4283 20.3826 32.0025 20.9569 32.0025 21.6627V24.5261C32.0025 25.2703 32.6058 25.8736 33.35 25.8736V21.6627C33.35 20.9569 33.9243 20.3826 34.6301 20.3826C35.336 20.3826 35.9102 20.9569 35.9102 21.6627V24.5261C35.9102 25.2703 36.5135 25.8736 37.2577 25.8736V21.6627ZM27.4211 22.5049C27.4211 24.4212 25.8677 25.9747 23.9514 25.9747C22.0351 25.9747 20.4816 24.4212 20.4816 22.5049C20.4816 20.5886 22.0351 19.0352 23.9513 19.0352C25.8676 19.0352 27.4211 20.5886 27.4211 22.5049H27.4211ZM26.0736 22.5049C26.0736 21.3328 25.1235 20.3826 23.9514 20.3826C22.7793 20.3826 21.8291 21.3328 21.8291 22.5049C21.8291 23.677 22.7793 24.6272 23.9514 24.6272C25.1235 24.6272 26.0736 23.677 26.0736 22.5049ZM19.9426 22.5049C19.9426 24.4212 18.3891 25.9747 16.4728 25.9747C14.5566 25.9747 13.0031 24.4212 13.0031 22.5049C13.0031 20.5886 14.5566 19.0352 16.4728 19.0352C18.3891 19.0352 19.9426 20.5886 19.9426 22.5049H19.9426ZM18.5951 22.5049C18.5951 21.3328 17.645 20.3826 16.4728 20.3826C15.3007 20.3826 14.3506 21.3328 14.3506 22.5049C14.3506 23.677 15.3007 24.6272 16.4728 24.6272C17.645 24.6272 18.5951 23.677 18.5951 22.5049Z" fill="white"/>
<defs>
<linearGradient id="paint0_linear_850_188856" x1="10.4131" y1="42.5692" x2="33.5869" y2="2.43083" gradientUnits="userSpaceOnUse">
<stop stop-color="#0845BF"/>
<stop offset="0.6" stop-color="#0B5CFF"/>
<stop offset="1" stop-color="#4F90EE"/>
</linearGradient>
</defs>
</svg>
