<svg width="28" height="28" viewBox="0 0 28 28" fill="none" xmlns="http://www.w3.org/2000/svg">
<path d="M14.0001 0C6.26806 0 6.10352e-05 6.26796 6.10352e-05 14C6.10352e-05 21.732 6.26811 28 14.0001 28C21.732 28 28 21.732 28 14C28 6.26796 21.732 0 14.0001 0Z" fill="url(#paint0_linear_6318_106261)"/>
<g clip-path="url(#clip0_6318_106261)">
<path fill-rule="evenodd" clip-rule="evenodd" d="M19.2498 8.75H15.0252L14.6922 7.33709C14.6456 7.13954 14.4694 7 14.2664 7H8.75024C7.78382 7 7.00024 7.78347 7.00024 8.75V17.5C7.00024 18.4665 7.78382 19.25 8.75024 19.25H12.9748L13.3079 20.6629C13.3545 20.8605 13.5307 21 13.7336 21H19.2498C20.2163 21 20.9998 20.2165 20.9998 19.25V10.5C20.9998 9.53347 20.2164 8.75 19.2498 8.75ZM12.9415 15.7937L12.548 14.6668H10.4827L10.0978 15.7937H9.18775L11.0779 10.7188H12.014L13.9131 15.7937H12.9415ZM10.7455 13.9247H12.2767L11.5068 11.7478L10.7455 13.9247ZM17.1232 15.7509C17.6829 15.1383 18.1294 14.3972 18.4618 13.4907H19.3457V12.7803H16.913V11.8125H16.1692V12.7803H15.9752L16.1427 13.4907H17.6043C17.342 14.1828 16.9916 14.7586 16.5541 15.2363L16.876 16.6017C17.4475 17.0087 18.1231 17.3272 18.9343 17.5332C19.0479 17.325 19.2757 16.982 19.4594 16.8044C18.5229 16.5961 17.753 16.2348 17.1232 15.7509Z" fill="#0D213F"/>
</g>
<defs>
<linearGradient id="paint0_linear_6318_106261" x1="14.0001" y1="28.0001" x2="14.0001" y2="0" gradientUnits="userSpaceOnUse">
<stop stop-color="#93BAF5"/>
<stop offset="1" stop-color="#D7E6FC"/>
</linearGradient>
<clipPath id="clip0_6318_106261">
<rect width="15.75" height="15.75" fill="white" transform="translate(6.12506 6.125)"/>
</clipPath>
</defs>
</svg>
