<svg width="28" height="28" viewBox="0 0 28 28" fill="none" xmlns="http://www.w3.org/2000/svg">
<path d="M28 14C28 15.4971 27.8796 16.9651 27.6497 18.3965C26.8886 23.1351 23.1351 26.8886 18.3965 27.6497C16.965 27.8796 15.497 28 14 28C12.503 28 11.035 27.8796 9.60355 27.6497C4.86494 26.8886 1.11135 23.1351 0.350273 18.3965C0.120366 16.9651 0 15.4971 0 14C0 12.5029 0.120366 11.0349 0.350273 9.60349C1.11135 4.86489 4.86494 1.11135 9.60355 0.350271C11.035 0.120363 12.503 0 14 0C15.497 0 16.965 0.120363 18.3965 0.350271C23.1351 1.11135 26.8886 4.86489 27.6497 9.60349C27.8796 11.0349 28 12.5029 28 14Z" fill="#0B5CFF"/>
<path d="M28 14C28 15.4971 27.8796 16.9651 27.6497 18.3965C26.8886 23.1351 23.1351 26.8886 18.3965 27.6497C16.965 27.8796 15.497 28 14 28C12.503 28 11.035 27.8796 9.60355 27.6497C4.86494 26.8886 1.11135 23.1351 0.350273 18.3965C0.120366 16.9651 0 15.4971 0 14C0 12.5029 0.120366 11.0349 0.350273 9.60349C1.11135 4.86489 4.86494 1.11135 9.60355 0.350271C11.035 0.120363 12.503 0 14 0C15.497 0 16.965 0.120363 18.3965 0.350271C23.1351 1.11135 26.8886 4.86489 27.6497 9.60349C27.8796 11.0349 28 12.5029 28 14Z" fill="url(#paint0_radial_6315_106304)"/>
<path d="M27.9999 14C27.9999 15.4971 27.8795 16.9651 27.6496 18.3965C26.8885 23.1351 23.135 26.8886 18.3964 27.6497C16.9649 27.8796 15.497 28 13.9999 28C12.5029 28 11.0349 27.8796 9.60349 27.6497C4.86484 26.8886 1.1113 23.1351 0.350223 18.3965C0.120316 16.965 0 15.4971 0 14C0 12.503 0.120316 11.0349 0.350223 9.60345C1.11135 4.86489 4.86489 1.11125 9.60349 0.350223C11.035 0.120316 12.5029 0 13.9999 0C15.497 0 16.965 0.120316 18.3964 0.350223C23.135 1.11125 26.8885 4.86489 27.6496 9.60345C27.8795 11.0349 27.9999 12.5029 27.9999 14Z" fill="url(#paint1_radial_6315_106304)"/>
<g clip-path="url(#clip0_6315_106304)">
<path fill-rule="evenodd" clip-rule="evenodd" d="M20 7H8C6.89545 7 6 7.89539 6 9V19C6 20.1045 6.89545 21 8 21H20C21.1046 21 22 20.1045 22 19V9C22 7.89539 21.1046 7 20 7ZM12.5 9.75C12.5 9.33569 12.8358 9 13.25 9H14.75C15.1642 9 15.5 9.33569 15.5 9.75V10.25C15.5 10.6642 15.1642 11 14.75 11H13.25C12.8358 11 12.5 10.6642 12.5 10.25V9.75ZM8 9.75C8 9.33569 8.33582 9 8.75 9H10.25C10.6642 9 11 9.33569 11 9.75V10.25C11 10.6642 10.6642 11 10.25 11H8.75C8.33582 11 8 10.6642 8 10.25V9.75ZM20 18.25C20 18.6642 19.6642 19 19.25 19H8.75C8.33582 19 8 18.6642 8 18.25V12.75C8 12.3357 8.33582 12 8.75 12H19.25C19.6642 12 20 12.3357 20 12.75V18.25ZM20 10.25C20 10.6642 19.6642 11 19.25 11H17.75C17.3358 11 17 10.6642 17 10.25V9.75C17 9.33569 17.3358 9 17.75 9H19.25C19.6642 9 20 9.33569 20 9.75V10.25Z" fill="white"/>
</g>
<defs>
<radialGradient id="paint0_radial_6315_106304" cx="0" cy="0" r="1" gradientUnits="userSpaceOnUse" gradientTransform="translate(14 12.3731) scale(18.8757 15.7759)">
<stop offset="0.82" stop-color="#0B5CFF" stop-opacity="0"/>
<stop offset="0.98" stop-color="#003CB3"/>
</radialGradient>
<radialGradient id="paint1_radial_6315_106304" cx="0" cy="0" r="1" gradientUnits="userSpaceOnUse" gradientTransform="translate(13.9999 15.6211) scale(18.8689 15.7702)">
<stop offset="0.8" stop-color="#0B5CFF" stop-opacity="0"/>
<stop offset="1" stop-color="#71A5F1"/>
</radialGradient>
<clipPath id="clip0_6315_106304">
<rect width="18" height="18" fill="white" transform="translate(5 5)"/>
</clipPath>
</defs>
</svg>
